<svg t="1737641567740" class="icon" viewBox="0 0 1024 1024" version="1.1" xmlns="http://www.w3.org/2000/svg" p-id="1405" width="108" height="108"><path d="M927.655344 151.470584l-45.425882 46.960923a30.587139 30.587139 0 0 1-45.369028 0l-90.794909-93.864994a33.202397 33.202397 0 0 1 0-46.960924l45.369028-46.90407a30.700846 30.700846 0 0 1 45.425881 0l90.79491 93.864994a33.145543 33.145543 0 0 1 0 46.904071zM791.434553 292.296502l-162.089097 167.603878-136.163938 40.25222c-25.982012 6.708703-45.425882-13.417407-38.944591-40.25222l38.944591-140.769065 162.089097-167.660731a30.700846 30.700846 0 0 1 45.425882 0l90.738056 93.864994a33.202397 33.202397 0 0 1 0 46.960924z m-132.468466 427.480855l-1.591895-0.056854H292.31839a43.947693 43.947693 0 0 1-33.088689-13.076286 49.633035 49.633035 0 0 1-14.895596-34.168905 50.201569 50.201569 0 0 1 12.564605-35.135412 45.482735 45.482735 0 0 1 32.520156-15.577837h368.182739a45.937562 45.937562 0 0 1 33.202397 13.13314c9.096547 8.925987 14.383915 21.035765 14.838742 34.168904 0.852801 27.005374-19.387016 49.746741-45.141614 50.656396l-1.535043 0.056854zM485.56316 98.483197H179.634914 179.407501a28.426709 28.426709 0 0 0-27.573908 28.42671v770.98921a28.085589 28.085589 0 0 0 27.403348 28.199296H770.683055a28.028735 28.028735 0 0 0 27.403348-28.199296V467.405031c0.056853-27.517055 21.433739-49.917302 47.643165-49.917301 26.209426 0.056853 47.529458 22.400247 47.586311 49.917301v430.266673c-0.682241 69.929705-55.090963 126.271443-121.609463 126.271443l-1.250775-0.056854-0.17056-10.347322v10.347322H179.634914l-1.535042 0.056854a117.91399 117.91399 0 0 1-84.768447-36.272482 129.568941 129.568941 0 0 1-36.670455-89.657841V126.682493C57.513771 56.809642 111.922493 0.638464 178.213579 0.638464h307.349581c25.697745 0 46.619803 21.94542 46.619804 48.950793a49.348767 49.348767 0 0 1-13.587967 34.566879 45.312175 45.312175 0 0 1-33.031837 14.327061z" fill="#666666" p-id="1406"></path></svg>
