<svg t="1737642435302" class="icon" viewBox="0 0 1024 1024" version="1.1" xmlns="http://www.w3.org/2000/svg" p-id="1509" width="108" height="108"><path d="M701.44 967.111111H107.292444C48.128 967.111111 0 925.354667 0 874.040889V461.482667c0-40.96 30.663111-75.832889 73.159111-88.234667a161.962667 161.962667 0 0 1-12.458667-62.179556c0-91.534222 75.377778-166.058667 168.049778-166.058666a168.391111 168.391111 0 0 1 108.202667 39.139555A212.992 212.992 0 0 1 532.366222 56.888889c117.248 0 212.593778 94.264889 212.593778 210.147555 0 36.920889-9.614222 71.850667-26.908444 102.343112 51.996444 6.485333 90.737778 44.657778 90.737777 92.103111v1.706666l8.874667 2.730667 57.912889-55.808c31.744-31.402667 89.998222-31.914667 122.652444 0.512 14.791111 14.563556 23.893333 34.759111 25.6 56.888889L1024 862.663111c0 47.104-38.798222 85.504-86.584889 85.504-22.812444 0-45.795556-9.216-61.496889-24.576l-67.128889-64.455111v14.904889c0 51.313778-48.184889 93.070222-107.349333 93.070222zM102.343111 865.393778a20.195556 20.195556 0 0 0 4.949333 0.625778H701.44a19.456 19.456 0 0 0 4.949333-0.625778V469.902222a21.390222 21.390222 0 0 0-4.152889-0.398222H107.292444a20.423111 20.423111 0 0 0-4.949333 0.568889v395.320889z m844.970667-14.336l0.398222 0.341333a2.104889 2.104889 0 0 1-0.398222-0.341333z m-191.829334-183.978667l166.115556 159.288889V507.050667l-166.115556 160.028444z m192.056889-185.059555l-0.284444 0.284444a0.682667 0.682667 0 0 1 0.284444-0.284444zM532.366222 157.980444A109.795556 109.795556 0 0 0 422.115556 267.036444c0 47.843556 31.516444 89.429333 78.392888 103.537778l31.857778 9.557334 31.800889-9.557334c46.933333-14.108444 78.392889-55.694222 78.392889-103.537778a109.795556 109.795556 0 0 0-110.193778-109.056z m-303.616 88.177778c-36.238222 0-65.649778 29.127111-65.649778 64.910222 0 26.737778 17.180444 51.029333 42.837334 60.472889l22.812444 8.419556 22.755556-8.419556c25.656889-9.443556 42.837333-33.735111 42.837333-60.472889 0-35.783111-29.411556-64.910222-65.592889-64.910222z" fill="#666666" p-id="1510"></path></svg>
