<svg t="1737641691979" class="icon" viewBox="0 0 1024 1024" version="1.1" xmlns="http://www.w3.org/2000/svg" p-id="1573" width="108" height="108"><path d="M1023.88626 873.033663c0 51.59249-39.704033 93.401178-88.623042 93.401178H88.736832c-48.975892 0-88.679924-41.808688-88.679924-93.401178V93.344295c0-51.535607 39.704033-93.344295 88.679924-93.344295h229.009222l194.367736 170.704588h511.943118l-0.170648 702.329075zM910.291771 284.469726h-455.060549L284.640399 113.82202s-169.453172-4.493723-170.647706 0c0 0-2.673481 749.826019 0 739.473392h796.299078c1.706477-5.176314 0-568.825686 0-568.825686z m-227.530275 341.295411h-341.295411c-22.411732 0-56.825686-33.958893-56.825686-56.882568s34.413954-56.882569 56.825686-56.882569h341.295411c22.468615 0 56.882569 33.958893 56.882569 56.882569s-34.413954 56.882569-56.882569 56.882568z" fill="#666666" p-id="1574"></path></svg>
